# xmcd
#
# Track frame offsets:
#	150
#	17941
#	37762
#	57166
#	79346
#	97610
#	121057
#	140816
#	158856
#	179531
#	198406
#	215110
#	231726
#	250492
#
# Disc length: 3562 seconds
#
# Revision: 1
# Processed by: cddbd v1.5.1PL0 Copyright (c) Steve Scherf et al.
# Submitted via: audiograbber 1.83.01
#
DISCID=c80de80e
DTITLE=Amazing Rhythm Aces - Nothin' But The Blues
DYEAR=2004
DGENRE=Blues
TTITLE0=She Lied On Me
TTITLE1=Nothin' But The Blues
TTITLE2=Sensual Woman
TTITLE3=Strong Enough
TTITLE4=Snakin' Up On You
TTITLE5=Reminiscin' With The Blues
TTITLE6=Feels Like The First Time
TTITLE7=The Chance You Take
TTITLE8=Worse Than Dyin'
TTITLE9=She's Not You
TTITLE10=I Can Almost See It Now
TTITLE11=One Tear At A Time
TTITLE12=Thangamalang
TTITLE13=The Kind
EXTD=Copyright 2004 Russell Smith - The Amazing Rhythm Aces
EXTT0=
EXTT1=
EXTT2=
EXTT3=
EXTT4=
EXTT5=
EXTT6=
EXTT7=
EXTT8=
EXTT9=
EXTT10=
EXTT11=
EXTT12=
EXTT13=
PLAYORDER=
